<svg width="360" height="360" viewBox="0 0 360 360" fill="none" xmlns="http://www.w3.org/2000/svg">
<rect width="360" height="360" fill="white"/>
<path fill-rule="evenodd" clip-rule="evenodd" d="M251 349C245.477 349 241 344.523 241 339C241 333.477 245.477 329 251 329C256.523 329 261 333.477 261 339C261 344.523 256.523 349 251 349ZM251 343C248.791 343 247 341.209 247 339C247 336.791 248.791 335 251 335C253.209 335 255 336.791 255 339C255 341.209 253.209 343 251 343Z" fill="black"/>
<path fill-rule="evenodd" clip-rule="evenodd" d="M136 349C141.523 349 146 344.523 146 339C146 333.477 141.523 329 136 329C130.477 329 126 333.477 126 339C126 344.523 130.477 349 136 349ZM136 343C138.209 343 140 341.209 140 339C140 336.791 138.209 335 136 335C133.791 335 132 336.791 132 339C132 341.209 133.791 343 136 343Z" fill="black"/>
<path fill-rule="evenodd" clip-rule="evenodd" d="M98.5337 311.603C98.7028 311.13 99.2231 310.884 99.6959 311.053L115.612 316.747H193H193.472H270.859L286.776 311.053C287.249 310.884 287.769 311.13 287.938 311.603C289.629 316.331 287.168 321.534 282.44 323.225L272.734 326.697C272.685 326.715 272.636 326.725 272.587 326.73C272.543 326.741 272.497 326.747 272.45 326.747H193.472H193H114.022C113.974 326.747 113.928 326.741 113.884 326.73C113.835 326.725 113.786 326.715 113.738 326.697L104.031 323.225C99.3039 321.534 96.8426 316.331 98.5337 311.603Z" fill="black"/>
<path d="M193 302H222C229.18 302 235 307.82 235 315V317H193V302Z" fill="black"/>
<path d="M55.9965 201.205L57.3424 229.968C57.678 237.14 52.1361 243.226 44.9642 243.562L40.9536 243.749L39 202L55.9965 201.205Z" fill="black"/>
<path d="M194.5 305L231 240.5L210 177.5L148 228L55.5 217.5V204.5H135.5L183.5 139.5L234.5 62.5L275.5 85L247.5 165.5L260.5 246.5L209 305H194.5Z" fill="black"/>
<path d="M183.5 139.5L135.5 204.5H55.5V217.5L148 228L210 177.5L231 240.5L194.5 305H209L260.5 246.5L247.5 165.5M183.5 139.5L247.5 165.5M183.5 139.5L234.5 62.5L275.5 85L247.5 165.5" stroke="black"/>
<path d="M177.34 78.7345L234.5 63L225.555 89.6921L188.134 96.339L158 144L148.105 140.565L177.34 78.7345Z" fill="black" stroke="black"/>
<path d="M257.539 136.72L255.51 78.4693L275.569 85.1711L271.995 134.353L295.553 175.513L290.101 182.012L257.539 136.72Z" fill="black" stroke="black"/>
<path d="M301 40C301 56.0163 288.016 69 272 69C255.984 69 243 56.0163 243 40C243 23.9837 255.984 11 272 11C288.016 11 301 23.9837 301 40Z" fill="black"/>
</svg>
